<svg width="591" height="110" viewBox="0 0 591 110" fill="none" xmlns="http://www.w3.org/2000/svg">
<path d="M175.421 53.2632C175.421 48.9558 175.931 44.6716 176.949 40.4105C177.968 36.1495 179.52 32.3284 181.604 28.9474C183.688 25.52 186.305 22.7642 189.455 20.68C192.651 18.5495 196.379 17.4842 200.64 17.4842C201.983 17.4842 203.28 17.6232 204.531 17.9011C205.781 18.179 207.032 18.5032 208.282 18.8737C209.533 19.1979 210.829 19.5221 212.173 19.8463C213.562 20.1242 215.044 20.2632 216.619 20.2632C217.823 20.2632 218.819 20.1242 219.606 19.8463C220.44 19.5221 221.158 19.1979 221.76 18.8737C222.362 18.5032 222.895 18.179 223.358 17.9011C223.867 17.6232 224.4 17.4842 224.956 17.4842C225.651 17.4842 226.114 17.8084 226.345 18.4568C226.623 19.059 226.716 19.8463 226.623 20.8189C226.577 21.7916 226.368 22.88 225.998 24.0842C225.674 25.2884 225.257 26.4463 224.747 27.5579C224.423 28.2989 224.006 29.1558 223.497 30.1284C223.034 31.0547 222.432 31.9579 221.691 32.8379C220.903 33.7642 219.954 34.7832 218.842 35.8947C217.777 37.0063 216.758 38.1642 215.785 39.3684C214.813 40.5263 214.002 41.7537 213.354 43.0505C212.705 44.3011 212.381 45.5516 212.381 46.8021C212.381 47.96 212.752 48.9789 213.493 49.8589C214.234 50.6926 215.206 51.1095 216.411 51.1095C217.152 51.1095 217.592 50.9937 217.731 50.7621C217.869 50.5305 218.124 50.4147 218.495 50.4147C219.051 50.4147 219.444 50.8779 219.676 51.8042C219.907 52.7305 220.023 53.5411 220.023 54.2358C220.023 55.5326 219.722 56.7832 219.12 57.9874C218.518 59.1916 217.707 60.2568 216.688 61.1832C215.669 62.1095 214.488 62.8505 213.145 63.4063C211.848 63.9621 210.459 64.24 208.977 64.24C207.587 64.24 206.244 63.9853 204.947 63.4758C203.697 62.92 202.608 62.2021 201.682 61.3221C200.756 60.3958 200.015 59.3305 199.459 58.1263C198.903 56.9221 198.625 55.6253 198.625 54.2358C198.625 52.4758 198.973 50.9474 199.667 49.6505C200.408 48.3074 201.312 47.1263 202.377 46.1074C203.442 45.0421 204.577 44.1158 205.781 43.3284C207.032 42.5411 208.189 41.8463 209.255 41.2442C210.32 40.6421 211.2 40.0863 211.895 39.5768C212.636 39.0674 213.006 38.5811 213.006 38.1179C213.006 37.2379 212.358 36.6821 211.061 36.4505C208.699 36.0337 206.592 35.3853 204.739 34.5053C202.886 33.6253 201.126 32.7453 199.459 31.8653C197.838 30.9389 196.194 30.1284 194.526 29.4337C192.905 28.7389 191.099 28.3916 189.107 28.3916C187.949 28.3916 187 28.7158 186.259 29.3642C185.518 29.9663 184.939 30.7305 184.522 31.6568C184.105 32.5368 183.804 33.4632 183.619 34.4358C183.48 35.3621 183.411 36.1495 183.411 36.7979C183.411 39.16 183.642 41.7074 184.105 44.44C184.615 47.1263 185.356 49.8126 186.328 52.4989C187.347 55.1389 188.575 57.6863 190.011 60.1411C191.446 62.5958 193.114 64.7726 195.013 66.6716C196.912 68.5242 199.019 70.0063 201.335 71.1179C203.697 72.2295 206.267 72.7853 209.046 72.7853C212.103 72.7853 214.488 72.2526 216.202 71.1874C217.916 70.1221 219.282 68.9411 220.301 67.6442C221.32 66.3474 222.131 65.1663 222.733 64.1011C223.381 63.0358 224.122 62.5032 224.956 62.5032C225.373 62.5032 225.766 62.7347 226.137 63.1979C226.507 63.6147 226.693 64.6337 226.693 66.2547C226.693 68.4779 226.183 70.9326 225.164 73.6189C224.145 76.2589 222.64 78.7368 220.648 81.0526C218.703 83.3221 216.295 85.2211 213.423 86.7495C210.552 88.2779 207.263 89.0421 203.558 89.0421C199.667 89.0421 196.008 88.3011 192.581 86.8189C189.154 85.3368 186.166 83.1137 183.619 80.1495C181.118 77.1853 179.126 73.4568 177.644 68.9642C176.162 64.4716 175.421 59.2379 175.421 53.2632ZM228.166 25.0568C228.86 24.7326 230.065 24.1537 231.778 23.32C233.538 22.4863 235.414 21.6526 237.406 20.8189C239.444 19.9389 241.412 19.1747 243.311 18.5263C245.256 17.8316 246.738 17.4842 247.757 17.4842C248.776 17.4842 249.378 17.7621 249.564 18.3179C249.749 18.8737 249.841 19.4989 249.841 20.1937V47.9832H250.328C251.023 47.9832 251.694 47.4968 252.343 46.5242C253.037 45.5053 253.917 44.3937 254.983 43.1895C256.094 41.9389 257.53 40.8274 259.29 39.8547C261.096 38.8358 263.458 38.3263 266.376 38.3263C268.924 38.3263 270.961 38.8358 272.49 39.8547C274.065 40.8737 275.269 42.1937 276.103 43.8147C276.983 45.3895 277.561 47.1495 277.839 49.0947C278.117 50.9937 278.256 52.8463 278.256 54.6526L278.326 67.9221V79.8021C278.326 81.7937 278.488 83.4379 278.812 84.7347C279.183 85.9853 279.831 87.0737 280.757 88H257.484C258.41 87.0737 259.035 85.9853 259.359 84.7347C259.73 83.4379 259.915 81.7937 259.915 79.8021V57.2232C259.915 55.6021 259.637 54.1663 259.081 52.9158C258.526 51.6653 257.484 51.04 255.955 51.04C255.168 51.04 254.404 51.2021 253.663 51.5263C252.921 51.8042 252.273 52.3368 251.717 53.1242C251.161 53.8653 250.698 54.8611 250.328 56.1116C250.004 57.3621 249.841 58.96 249.841 60.9053V79.8021C249.841 81.7937 250.004 83.4379 250.328 84.7347C250.698 85.9853 251.347 87.0737 252.273 88H228.999C229.926 87.0737 230.551 85.9853 230.875 84.7347C231.246 83.4379 231.431 81.7937 231.431 79.8021V32.2821C231.431 32.0505 231.431 31.7032 231.431 31.24C231.431 30.7305 231.338 30.1979 231.153 29.6421C231.014 29.04 230.736 28.4842 230.319 27.9747C229.903 27.4653 229.277 27.1179 228.444 26.9326C228.351 26.8863 228.166 26.8168 227.888 26.7242C227.564 26.6316 227.401 26.3768 227.401 25.96C227.401 25.5895 227.517 25.3579 227.749 25.2653C227.934 25.1726 228.073 25.1032 228.166 25.0568ZM308.847 38.3263C311.95 38.3263 314.706 38.8589 317.114 39.9242C319.523 40.9432 321.537 42.3095 323.158 44.0232C324.826 45.7368 326.076 47.7053 326.91 49.9284C327.79 52.1516 328.23 54.4674 328.23 56.8758C328.23 58.7747 327.836 60.3263 327.049 61.5305C326.262 62.7347 325.196 63.6611 323.853 64.3095C322.51 64.9579 320.935 65.3979 319.129 65.6295C317.323 65.8611 315.401 65.9768 313.363 65.9768C311.371 65.9768 309.287 65.9305 307.11 65.8379C304.98 65.7453 302.895 65.6989 300.857 65.6989C300.487 65.6989 300.116 65.7453 299.746 65.8379C299.422 65.8842 299.26 66.2084 299.26 66.8105C299.26 67.4126 299.885 68.2695 301.135 69.3811C302.386 70.4463 303.961 71.5116 305.86 72.5768C307.758 73.6421 309.82 74.5684 312.043 75.3558C314.312 76.0968 316.443 76.4674 318.434 76.4674C320.102 76.4674 321.445 76.2821 322.464 75.9116C323.483 75.5411 324.293 75.1242 324.895 74.6611C325.544 74.1979 326.053 73.7811 326.424 73.4105C326.794 73.04 327.142 72.8547 327.466 72.8547C327.697 72.8547 327.929 72.9474 328.161 73.1326C328.438 73.3179 328.577 73.7116 328.577 74.3137C328.577 75.6105 328.184 77.1158 327.396 78.8295C326.655 80.5432 325.497 82.1642 323.923 83.6926C322.394 85.1747 320.403 86.4484 317.948 87.5137C315.54 88.5326 312.668 89.0421 309.333 89.0421C305.998 89.0421 302.803 88.44 299.746 87.2358C296.689 85.9853 293.98 84.2947 291.617 82.1642C289.255 79.9874 287.38 77.44 285.99 74.5221C284.601 71.6042 283.906 68.4316 283.906 65.0042C283.906 61.2063 284.438 57.6863 285.504 54.4442C286.569 51.1558 288.144 48.3305 290.228 45.9684C292.358 43.56 294.975 41.6842 298.078 40.3411C301.182 38.9979 304.771 38.3263 308.847 38.3263ZM291.687 52.2905C291.687 53.5411 291.826 54.7684 292.104 55.9726C292.428 57.1768 292.891 58.2653 293.493 59.2379C294.142 60.1642 294.975 60.9284 295.994 61.5305C297.013 62.0863 298.217 62.3642 299.607 62.3642C301.228 62.3642 302.872 62.3179 304.54 62.2253C306.253 62.0863 307.782 61.8547 309.125 61.5305C310.514 61.16 311.649 60.6274 312.529 59.9326C313.409 59.2379 313.849 58.3116 313.849 57.1537C313.849 55.3474 313.386 53.7495 312.46 52.36C311.533 50.9705 310.352 49.7895 308.916 48.8168C307.527 47.8442 305.998 47.1263 304.331 46.6632C302.71 46.1537 301.158 45.899 299.676 45.899C298.704 45.899 297.731 46.0611 296.758 46.3853C295.832 46.6632 294.975 47.08 294.188 47.6358C293.447 48.1916 292.845 48.8632 292.382 49.6505C291.918 50.4379 291.687 51.3179 291.687 52.2905ZM330.695 88C331.621 87.0737 332.246 85.9853 332.571 84.7347C332.941 83.4379 333.126 81.7937 333.126 79.8021V47.5663C333.126 45.5747 332.941 43.9537 332.571 42.7032C332.246 41.4063 331.621 40.2947 330.695 39.3684H347.716C349.198 39.3684 350.194 39.9011 350.703 40.9663C351.259 41.9853 351.537 43.3747 351.537 45.1347V46.3158C351.537 47.1495 351.583 47.6358 351.676 47.7747C351.768 47.9137 351.884 47.9832 352.023 47.9832C352.625 47.9832 353.227 47.4968 353.829 46.5242C354.478 45.5053 355.312 44.3937 356.331 43.1895C357.396 41.9389 358.762 40.8274 360.429 39.8547C362.097 38.8358 364.297 38.3263 367.029 38.3263C367.956 38.3263 368.928 38.4189 369.947 38.6042C370.966 38.7895 371.893 39.0674 372.726 39.4379C373.606 39.7621 374.324 40.1789 374.88 40.6884C375.436 41.1979 375.714 41.8 375.714 42.4947C375.714 42.68 375.598 43.0505 375.366 43.6063C375.135 44.1158 374.834 44.7411 374.463 45.4821C374.139 46.1768 373.745 46.9642 373.282 47.8442C372.819 48.6779 372.379 49.5347 371.962 50.4147C371.499 51.3874 371.036 52.3368 370.573 53.2632C370.156 54.1432 369.739 54.9305 369.322 55.6253C368.905 56.32 368.512 56.8758 368.141 57.2926C367.817 57.7095 367.493 57.9179 367.168 57.9179C366.427 57.9179 365.848 57.5937 365.432 56.9453C365.061 56.2968 364.621 55.6021 364.112 54.8611C363.602 54.0737 362.907 53.3789 362.027 52.7768C361.147 52.1284 359.874 51.8042 358.206 51.8042C356.771 51.8042 355.613 52.1053 354.733 52.7074C353.853 53.2632 353.158 54.0042 352.648 54.9305C352.185 55.8105 351.884 56.7832 351.745 57.8484C351.606 58.9137 351.537 59.9326 351.537 60.9053V79.8021C351.537 81.7937 351.699 83.4379 352.023 84.7347C352.394 85.9853 353.042 87.0737 353.968 88H330.695ZM377.796 18.5263H431.777V43.8842C431.777 44.3474 431.638 44.7411 431.36 45.0653C431.128 45.3895 430.758 45.5516 430.248 45.5516C429.693 45.5516 429.044 44.9726 428.303 43.8147C427.608 42.6568 426.844 41.1979 426.01 39.4379C425.223 37.6779 424.389 35.8021 423.509 33.8105C422.676 31.7726 421.842 29.8737 421.008 28.1137C420.175 26.3537 419.341 24.8947 418.507 23.7368C417.674 22.5789 416.886 22 416.145 22C415.126 22 414.501 22.4863 414.269 23.459C414.084 24.3853 413.991 25.3811 413.991 26.4463V79.8021C413.991 81.7937 414.154 83.4379 414.478 84.7347C414.848 85.9853 415.497 87.0737 416.423 88H393.149C394.076 87.0737 394.701 85.9853 395.025 84.7347C395.396 83.4379 395.581 81.7937 395.581 79.8021V26.4463C395.581 25.3811 395.465 24.3853 395.234 23.459C395.048 22.4863 394.446 22 393.427 22C392.686 22 391.899 22.5789 391.065 23.7368C390.231 24.8947 389.398 26.3537 388.564 28.1137C387.73 29.8737 386.874 31.7726 385.994 33.8105C385.16 35.8021 384.326 37.6779 383.493 39.4379C382.705 41.1979 381.964 42.6568 381.269 43.8147C380.575 44.9726 379.926 45.5516 379.324 45.5516C378.815 45.5516 378.421 45.3895 378.143 45.0653C377.911 44.7411 377.796 44.3474 377.796 43.8842V18.5263ZM456.814 39.3684C455.888 40.2947 455.239 41.4063 454.869 42.7032C454.544 43.9537 454.382 45.5747 454.382 47.5663V70.1453C454.382 71.7663 454.66 73.2021 455.216 74.4526C455.772 75.7032 456.814 76.3284 458.342 76.3284C459.13 76.3284 459.894 76.1895 460.635 75.9116C461.376 75.5874 462.024 75.0547 462.58 74.3137C463.136 73.5263 463.576 72.5074 463.9 71.2568C464.271 70.0063 464.456 68.4084 464.456 66.4632V47.5663C464.456 45.5747 464.271 43.9537 463.9 42.7032C463.576 41.4063 462.951 40.2947 462.024 39.3684H485.298C484.372 40.2947 483.723 41.4063 483.353 42.7032C483.029 43.9537 482.866 45.5747 482.866 47.5663V79.8021C482.866 81.7937 483.029 83.4379 483.353 84.7347C483.723 85.9853 484.372 87.0737 485.298 88H468.277C466.795 88 465.776 87.4905 465.22 86.4716C464.711 85.4063 464.456 83.9937 464.456 82.2337V81.0526C464.456 80.2189 464.41 79.7326 464.317 79.5937C464.224 79.4547 464.109 79.3853 463.97 79.3853C463.275 79.3853 462.58 79.8947 461.885 80.9137C461.237 81.8863 460.357 82.9979 459.245 84.2484C458.18 85.4526 456.744 86.5642 454.938 87.5832C453.178 88.5558 450.839 89.0421 447.921 89.0421C445.374 89.0421 443.313 88.5326 441.738 87.5137C440.21 86.4947 439.005 85.1979 438.125 83.6232C437.292 82.0021 436.736 80.2421 436.458 78.3432C436.18 76.3979 436.041 74.5221 436.041 72.7158L435.972 59.4463V47.5663C435.972 45.5747 435.786 43.9537 435.416 42.7032C435.092 41.4063 434.466 40.2947 433.54 39.3684H456.814ZM485.282 25.96C485.282 25.5895 485.398 25.3579 485.629 25.2653C485.814 25.1726 485.953 25.1032 486.046 25.0568C486.741 24.7326 487.945 24.1537 489.659 23.32C491.419 22.4863 493.294 21.6526 495.286 20.8189C497.324 19.9389 499.292 19.1747 501.191 18.5263C503.137 17.8316 504.619 17.4842 505.638 17.4842C506.657 17.4842 507.259 17.7621 507.444 18.3179C507.629 18.8737 507.722 19.4989 507.722 20.1937V43.12C507.861 43.4442 508.023 43.6526 508.208 43.7453C508.393 43.7916 508.602 43.8147 508.833 43.8147C509.204 43.8147 509.644 43.5368 510.153 42.9811C510.709 42.379 511.427 41.7537 512.307 41.1053C513.187 40.4105 514.275 39.7853 515.572 39.2295C516.915 38.6274 518.56 38.3263 520.505 38.3263C523.932 38.3263 526.873 39.1137 529.328 40.6884C531.829 42.2632 533.867 44.3011 535.442 46.8021C537.063 49.3032 538.244 52.1284 538.985 55.2779C539.772 58.3811 540.166 61.5074 540.166 64.6568C540.166 68.0379 539.726 71.2105 538.846 74.1747C537.966 77.1389 536.692 79.7326 535.025 81.9558C533.358 84.1326 531.297 85.8695 528.842 87.1663C526.433 88.4168 523.654 89.0421 520.505 89.0421C519.625 89.0421 518.699 88.9495 517.726 88.7642C516.753 88.5789 515.758 88.2316 514.739 87.7221C513.766 87.1663 512.793 86.4253 511.821 85.4989C510.848 84.5726 509.899 83.3684 508.972 81.8863C508.741 81.5158 508.463 81.2611 508.139 81.1221C507.861 80.9368 507.722 81.0989 507.722 81.6084V82.3032C507.722 84.0632 507.444 85.4526 506.888 86.4716C506.379 87.4905 505.383 88 503.901 88H486.88C487.806 87.0737 488.431 85.9853 488.755 84.7347C489.126 83.4379 489.311 81.7937 489.311 79.8021V32.2821C489.311 32.0505 489.311 31.7032 489.311 31.24C489.311 30.7305 489.219 30.1979 489.033 29.6421C488.894 29.0863 488.617 28.5537 488.2 28.0442C487.783 27.5347 487.158 27.1642 486.324 26.9326C486.231 26.8863 486.046 26.8168 485.768 26.7242C485.444 26.6316 485.282 26.3768 485.282 25.96ZM507.722 55.8337V69.3811C507.722 70.3537 507.768 71.4653 507.861 72.7158C508 73.9663 508.278 75.1705 508.694 76.3284C509.111 77.44 509.713 78.3895 510.501 79.1768C511.334 79.9642 512.446 80.3579 513.835 80.3579C515.781 80.3579 517.286 79.8253 518.351 78.76C519.417 77.6484 520.204 76.2589 520.713 74.5916C521.223 72.8779 521.524 70.9789 521.617 68.8947C521.755 66.7642 521.825 64.7032 521.825 62.7116C521.825 60.8126 521.709 58.8674 521.478 56.8758C521.246 54.8379 520.806 52.9853 520.158 51.3179C519.509 49.6505 518.583 48.2842 517.379 47.2189C516.221 46.1537 514.669 45.6211 512.724 45.6211C511.659 45.6211 510.779 45.9916 510.084 46.7326C509.435 47.4737 508.926 48.3768 508.555 49.4421C508.231 50.4611 508 51.5726 507.861 52.7768C507.768 53.9347 507.722 54.9537 507.722 55.8337ZM568.559 38.3263C571.662 38.3263 574.418 38.8589 576.826 39.9242C579.235 40.9432 581.25 42.3095 582.871 44.0232C584.538 45.7368 585.789 47.7053 586.622 49.9284C587.502 52.1516 587.942 54.4674 587.942 56.8758C587.942 58.7747 587.549 60.3263 586.761 61.5305C585.974 62.7347 584.908 63.6611 583.565 64.3095C582.222 64.9579 580.647 65.3979 578.841 65.6295C577.035 65.8611 575.113 65.9768 573.075 65.9768C571.083 65.9768 568.999 65.9305 566.822 65.8379C564.692 65.7453 562.607 65.6989 560.57 65.6989C560.199 65.6989 559.829 65.7453 559.458 65.8379C559.134 65.8842 558.972 66.2084 558.972 66.8105C558.972 67.4126 559.597 68.2695 560.847 69.3811C562.098 70.4463 563.673 71.5116 565.572 72.5768C567.471 73.6421 569.532 74.5684 571.755 75.3558C574.024 76.0968 576.155 76.4674 578.146 76.4674C579.814 76.4674 581.157 76.2821 582.176 75.9116C583.195 75.5411 584.005 75.1242 584.607 74.6611C585.256 74.1979 585.765 73.7811 586.136 73.4105C586.506 73.04 586.854 72.8547 587.178 72.8547C587.41 72.8547 587.641 72.9474 587.873 73.1326C588.151 73.3179 588.29 73.7116 588.29 74.3137C588.29 75.6105 587.896 77.1158 587.109 78.8295C586.367 80.5432 585.21 82.1642 583.635 83.6926C582.106 85.1747 580.115 86.4484 577.66 87.5137C575.252 88.5326 572.38 89.0421 569.045 89.0421C565.711 89.0421 562.515 88.44 559.458 87.2358C556.401 85.9853 553.692 84.2947 551.33 82.1642C548.967 79.9874 547.092 77.44 545.702 74.5221C544.313 71.6042 543.618 68.4316 543.618 65.0042C543.618 61.2063 544.151 57.6863 545.216 54.4442C546.281 51.1558 547.856 48.3305 549.94 45.9684C552.071 43.56 554.687 41.6842 557.791 40.3411C560.894 38.9979 564.483 38.3263 568.559 38.3263ZM551.399 52.2905C551.399 53.5411 551.538 54.7684 551.816 55.9726C552.14 57.1768 552.603 58.2653 553.205 59.2379C553.854 60.1642 554.687 60.9284 555.706 61.5305C556.725 62.0863 557.93 62.3642 559.319 62.3642C560.94 62.3642 562.584 62.3179 564.252 62.2253C565.965 62.0863 567.494 61.8547 568.837 61.5305C570.226 61.16 571.361 60.6274 572.241 59.9326C573.121 59.2379 573.561 58.3116 573.561 57.1537C573.561 55.3474 573.098 53.7495 572.172 52.36C571.245 50.9705 570.064 49.7895 568.629 48.8168C567.239 47.8442 565.711 47.1263 564.043 46.6632C562.422 46.1537 560.871 45.899 559.389 45.899C558.416 45.899 557.443 46.0611 556.471 46.3853C555.544 46.6632 554.687 47.08 553.9 47.6358C553.159 48.1916 552.557 48.8632 552.094 49.6505C551.631 50.4379 551.399 51.3179 551.399 52.2905Z" fill="black"/>
<rect y="5.78947" width="162.105" height="92.6316" rx="17.3684" fill="#7785FF"/>
<path d="M95.5263 47.2807H92.4869C91.5844 43.7853 89.7195 40.6131 87.1042 38.1246C84.4889 35.6362 81.2281 33.9311 77.6922 33.2033C74.1563 32.4755 70.4871 32.7541 67.1016 34.0074C63.7161 35.2607 60.75 37.4384 58.5404 40.2933C56.3308 43.1481 54.9662 46.5654 54.6018 50.157C54.2373 53.7486 54.8876 57.3704 56.4787 60.6109C58.0698 63.8514 60.5379 66.5806 63.6027 68.4884C66.6674 70.3963 70.2058 71.4062 73.8158 71.4035H95.5263C98.7252 71.4035 101.793 70.1328 104.055 67.8708C106.317 65.6089 107.588 62.541 107.588 59.3421C107.588 56.1432 106.317 53.0754 104.055 50.8134C101.793 48.5515 98.7252 47.2807 95.5263 47.2807Z" fill="white"/>
</svg>
