<svg width="163" height="94" viewBox="0 0 163 94" fill="none" xmlns="http://www.w3.org/2000/svg">
<rect y="0.789474" width="162.105" height="92.6316" rx="17.3684" fill="#7785FF"/>
<path d="M95.5263 42.2807H92.4869C91.5844 38.7853 89.7195 35.6131 87.1042 33.1246C84.4889 30.6362 81.2281 28.9311 77.6922 28.2033C74.1563 27.4755 70.4871 27.7541 67.1016 29.0074C63.7161 30.2607 60.75 32.4384 58.5404 35.2933C56.3308 38.1481 54.9662 41.5654 54.6018 45.157C54.2373 48.7486 54.8876 52.3704 56.4787 55.6109C58.0698 58.8514 60.5379 61.5806 63.6027 63.4884C66.6674 65.3963 70.2058 66.4062 73.8158 66.4035H95.5263C98.7252 66.4035 101.793 65.1328 104.055 62.8708C106.317 60.6089 107.588 57.541 107.588 54.3421C107.588 51.1432 106.317 48.0754 104.055 45.8134C101.793 43.5515 98.7252 42.2807 95.5263 42.2807Z" fill="white"/>
</svg>
